<mxfile host="app.diagrams.net" agent="Mozilla/5.0 (Windows NT 10.0; Win64; x64) AppleWebKit/537.36 (KHTML, like Gecko) Chrome/131.0.0.0 Safari/537.36" version="25.0.3">
  <diagram name="Страница — 1" id="DOnxu5BQ5jM_AOVZ3r2i">
    <mxGraphModel dx="2294" dy="780" grid="1" gridSize="10" guides="1" tooltips="1" connect="1" arrows="1" fold="1" page="1" pageScale="1" pageWidth="827" pageHeight="1169" math="0" shadow="0">
      <root>
        <mxCell id="0" />
        <mxCell id="1" parent="0" />
        <mxCell id="1J4Oa96EwveFmY7NADve-1" value="" style="shape=umlLifeline;perimeter=lifelinePerimeter;whiteSpace=wrap;html=1;container=1;dropTarget=0;collapsible=0;recursiveResize=0;outlineConnect=0;portConstraint=eastwest;newEdgeStyle={&quot;curved&quot;:0,&quot;rounded&quot;:0};participant=umlActor;" parent="1" vertex="1">
          <mxGeometry x="50" y="40" width="20" height="960" as="geometry" />
        </mxCell>
        <mxCell id="1J4Oa96EwveFmY7NADve-13" value="" style="html=1;points=[[0,0,0,0,5],[0,1,0,0,-5],[1,0,0,0,5],[1,1,0,0,-5]];perimeter=orthogonalPerimeter;outlineConnect=0;targetShapes=umlLifeline;portConstraint=eastwest;newEdgeStyle={&quot;curved&quot;:0,&quot;rounded&quot;:0};" parent="1J4Oa96EwveFmY7NADve-1" vertex="1">
          <mxGeometry x="5" y="70" width="10" height="50" as="geometry" />
        </mxCell>
        <mxCell id="1J4Oa96EwveFmY7NADve-14" value="" style="html=1;points=[[0,0,0,0,5],[0,1,0,0,-5],[1,0,0,0,5],[1,1,0,0,-5]];perimeter=orthogonalPerimeter;outlineConnect=0;targetShapes=umlLifeline;portConstraint=eastwest;newEdgeStyle={&quot;curved&quot;:0,&quot;rounded&quot;:0};" parent="1J4Oa96EwveFmY7NADve-1" vertex="1">
          <mxGeometry x="5" y="140" width="10" height="70" as="geometry" />
        </mxCell>
        <mxCell id="1J4Oa96EwveFmY7NADve-19" value="" style="html=1;points=[[0,0,0,0,5],[0,1,0,0,-5],[1,0,0,0,5],[1,1,0,0,-5]];perimeter=orthogonalPerimeter;outlineConnect=0;targetShapes=umlLifeline;portConstraint=eastwest;newEdgeStyle={&quot;curved&quot;:0,&quot;rounded&quot;:0};" parent="1J4Oa96EwveFmY7NADve-1" vertex="1">
          <mxGeometry x="5" y="235" width="10" height="40" as="geometry" />
        </mxCell>
        <mxCell id="1J4Oa96EwveFmY7NADve-2" value="Система" style="shape=umlLifeline;perimeter=lifelinePerimeter;whiteSpace=wrap;html=1;container=1;dropTarget=0;collapsible=0;recursiveResize=0;outlineConnect=0;portConstraint=eastwest;newEdgeStyle={&quot;curved&quot;:0,&quot;rounded&quot;:0};" parent="1" vertex="1">
          <mxGeometry x="200" y="40" width="100" height="960" as="geometry" />
        </mxCell>
        <mxCell id="1J4Oa96EwveFmY7NADve-18" value="" style="html=1;points=[[0,0,0,0,5],[0,1,0,0,-5],[1,0,0,0,5],[1,1,0,0,-5]];perimeter=orthogonalPerimeter;outlineConnect=0;targetShapes=umlLifeline;portConstraint=eastwest;newEdgeStyle={&quot;curved&quot;:0,&quot;rounded&quot;:0};" parent="1J4Oa96EwveFmY7NADve-2" vertex="1">
          <mxGeometry x="45" y="235" width="10" height="40" as="geometry" />
        </mxCell>
        <mxCell id="1J4Oa96EwveFmY7NADve-20" value="" style="html=1;points=[[0,0,0,0,5],[0,1,0,0,-5],[1,0,0,0,5],[1,1,0,0,-5]];perimeter=orthogonalPerimeter;outlineConnect=0;targetShapes=umlLifeline;portConstraint=eastwest;newEdgeStyle={&quot;curved&quot;:0,&quot;rounded&quot;:0};" parent="1J4Oa96EwveFmY7NADve-2" vertex="1">
          <mxGeometry x="45" y="75" width="10" height="40" as="geometry" />
        </mxCell>
        <mxCell id="1J4Oa96EwveFmY7NADve-4" value="Склад" style="shape=umlLifeline;perimeter=lifelinePerimeter;whiteSpace=wrap;html=1;container=1;dropTarget=0;collapsible=0;recursiveResize=0;outlineConnect=0;portConstraint=eastwest;newEdgeStyle={&quot;curved&quot;:0,&quot;rounded&quot;:0};" parent="1" vertex="1">
          <mxGeometry x="390" y="40" width="100" height="960" as="geometry" />
        </mxCell>
        <mxCell id="1J4Oa96EwveFmY7NADve-17" value="" style="html=1;points=[[0,0,0,0,5],[0,1,0,0,-5],[1,0,0,0,5],[1,1,0,0,-5]];perimeter=orthogonalPerimeter;outlineConnect=0;targetShapes=umlLifeline;portConstraint=eastwest;newEdgeStyle={&quot;curved&quot;:0,&quot;rounded&quot;:0};" parent="1J4Oa96EwveFmY7NADve-4" vertex="1">
          <mxGeometry x="45" y="160" width="10" height="50" as="geometry" />
        </mxCell>
        <mxCell id="1J4Oa96EwveFmY7NADve-5" value="Вход в систему" style="html=1;verticalAlign=bottom;endArrow=block;curved=0;rounded=0;" parent="1" target="1J4Oa96EwveFmY7NADve-2" edge="1">
          <mxGeometry x="0.0026" width="80" relative="1" as="geometry">
            <mxPoint x="60" y="120" as="sourcePoint" />
            <mxPoint x="140" y="120" as="targetPoint" />
            <mxPoint as="offset" />
          </mxGeometry>
        </mxCell>
        <mxCell id="1J4Oa96EwveFmY7NADve-6" value="Авторизация пользователя" style="html=1;verticalAlign=bottom;endArrow=block;curved=0;rounded=0;" parent="1" edge="1">
          <mxGeometry width="80" relative="1" as="geometry">
            <mxPoint x="249.5" y="150" as="sourcePoint" />
            <mxPoint x="59.5" y="150" as="targetPoint" />
          </mxGeometry>
        </mxCell>
        <mxCell id="1J4Oa96EwveFmY7NADve-7" value="Выбрать товар" style="html=1;verticalAlign=bottom;endArrow=block;curved=0;rounded=0;" parent="1" edge="1">
          <mxGeometry width="80" relative="1" as="geometry">
            <mxPoint x="60" y="189.5" as="sourcePoint" />
            <mxPoint x="250" y="189.5" as="targetPoint" />
          </mxGeometry>
        </mxCell>
        <mxCell id="1J4Oa96EwveFmY7NADve-8" value="Проверка наличие товара" style="html=1;verticalAlign=bottom;endArrow=block;curved=0;rounded=0;" parent="1" edge="1">
          <mxGeometry width="80" relative="1" as="geometry">
            <mxPoint x="250" y="210" as="sourcePoint" />
            <mxPoint x="440" y="210" as="targetPoint" />
          </mxGeometry>
        </mxCell>
        <mxCell id="1J4Oa96EwveFmY7NADve-9" value="Товар в наличии" style="html=1;verticalAlign=bottom;endArrow=block;curved=0;rounded=0;" parent="1" target="1J4Oa96EwveFmY7NADve-1" edge="1">
          <mxGeometry width="80" relative="1" as="geometry">
            <mxPoint x="440" y="240" as="sourcePoint" />
            <mxPoint x="250" y="240" as="targetPoint" />
          </mxGeometry>
        </mxCell>
        <mxCell id="1J4Oa96EwveFmY7NADve-10" value="добавить в корзину" style="html=1;verticalAlign=bottom;endArrow=block;curved=0;rounded=0;" parent="1" edge="1">
          <mxGeometry width="80" relative="1" as="geometry">
            <mxPoint x="60" y="280" as="sourcePoint" />
            <mxPoint x="250" y="280" as="targetPoint" />
          </mxGeometry>
        </mxCell>
        <mxCell id="1J4Oa96EwveFmY7NADve-11" value="Добавленные товары" style="html=1;verticalAlign=bottom;endArrow=block;curved=0;rounded=0;" parent="1" edge="1">
          <mxGeometry width="80" relative="1" as="geometry">
            <mxPoint x="250" y="310" as="sourcePoint" />
            <mxPoint x="60" y="310" as="targetPoint" />
          </mxGeometry>
        </mxCell>
        <mxCell id="1J4Oa96EwveFmY7NADve-12" value="OPT" style="shape=umlFrame;whiteSpace=wrap;html=1;pointerEvents=0;" parent="1" vertex="1">
          <mxGeometry x="20" y="320" width="460" height="230" as="geometry" />
        </mxCell>
        <mxCell id="1J4Oa96EwveFmY7NADve-22" value="Подтверждение заказа&lt;span style=&quot;color: rgba(0, 0, 0, 0); font-family: monospace; font-size: 0px; text-align: start; background-color: rgb(251, 251, 251);&quot;&gt;%3CmxGraphModel%3E%3Croot%3E%3CmxCell%20id%3D%220%22%2F%3E%3CmxCell%20id%3D%221%22%20parent%3D%220%22%2F%3E%3CmxCell%20id%3D%222%22%20value%3D%22%D0%B4%D0%BE%D0%B1%D0%B0%D0%B2%D0%B8%D1%82%D1%8C%20%D0%B2%20%D0%BA%D0%BE%D1%80%D0%B7%D0%B8%D0%BD%D1%83%22%20style%3D%22html%3D1%3BverticalAlign%3Dbottom%3BendArrow%3Dblock%3Bcurved%3D0%3Brounded%3D0%3B%22%20edge%3D%221%22%20parent%3D%221%22%3E%3CmxGeometry%20width%3D%2280%22%20relative%3D%221%22%20as%3D%22geometry%22%3E%3CmxPoint%20x%3D%2260%22%20y%3D%22280%22%20as%3D%22sourcePoint%22%2F%3E%3CmxPoint%20x%3D%22250%22%20y%3D%22280%22%20as%3D%22targetPoint%22%2F%3E%3C%2FmxGeometry%3E%3C%2FmxCell%3E%3C%2Froot%3E%3C%2FmxGraphModel%3E&lt;/span&gt;" style="html=1;verticalAlign=bottom;endArrow=block;curved=0;rounded=0;" parent="1" edge="1">
          <mxGeometry width="80" relative="1" as="geometry">
            <mxPoint x="60" y="370" as="sourcePoint" />
            <mxPoint x="250" y="370" as="targetPoint" />
          </mxGeometry>
        </mxCell>
        <mxCell id="1J4Oa96EwveFmY7NADve-23" value="Бронирование товара" style="html=1;verticalAlign=bottom;endArrow=block;curved=0;rounded=0;" parent="1" edge="1">
          <mxGeometry width="80" relative="1" as="geometry">
            <mxPoint x="250" y="380" as="sourcePoint" />
            <mxPoint x="440" y="380" as="targetPoint" />
          </mxGeometry>
        </mxCell>
        <mxCell id="1J4Oa96EwveFmY7NADve-24" value="Бронированные товары" style="html=1;verticalAlign=bottom;endArrow=block;curved=0;rounded=0;" parent="1" edge="1">
          <mxGeometry width="80" relative="1" as="geometry">
            <mxPoint x="440" y="410" as="sourcePoint" />
            <mxPoint x="250" y="410" as="targetPoint" />
          </mxGeometry>
        </mxCell>
        <mxCell id="1J4Oa96EwveFmY7NADve-25" value="Подтверждение заказа" style="html=1;verticalAlign=bottom;endArrow=block;curved=0;rounded=0;" parent="1" edge="1">
          <mxGeometry width="80" relative="1" as="geometry">
            <mxPoint x="250" y="430" as="sourcePoint" />
            <mxPoint x="60" y="430" as="targetPoint" />
          </mxGeometry>
        </mxCell>
        <mxCell id="1J4Oa96EwveFmY7NADve-26" value="" style="endArrow=none;startArrow=none;endFill=0;startFill=0;endSize=8;html=1;verticalAlign=bottom;dashed=1;labelBackgroundColor=none;dashPattern=10 10;rounded=0;entryX=0.993;entryY=0.639;entryDx=0;entryDy=0;entryPerimeter=0;exitX=0.011;exitY=0.643;exitDx=0;exitDy=0;exitPerimeter=0;" parent="1" edge="1">
          <mxGeometry x="-1" y="-98" width="160" relative="1" as="geometry">
            <mxPoint x="24.139999999999944" y="460.91999999999996" as="sourcePoint" />
            <mxPoint x="475.85999999999996" y="460" as="targetPoint" />
            <mxPoint x="-90" y="-58" as="offset" />
          </mxGeometry>
        </mxCell>
        <mxCell id="1J4Oa96EwveFmY7NADve-27" value="Товар не забронирован&lt;span style=&quot;color: rgba(0, 0, 0, 0); font-family: monospace; font-size: 0px; text-align: start; background-color: rgb(251, 251, 251);&quot;&gt;%3CmxGraphModel%3E%3Croot%3E%3CmxCell%20id%3D%220%22%2F%3E%3CmxCell%20id%3D%221%22%20parent%3D%220%22%2F%3E%3CmxCell%20id%3D%222%22%20value%3D%22%D0%91%D1%80%D0%BE%D0%BD%D0%B8%D1%80%D0%BE%D0%B2%D0%B0%D0%BD%D0%BD%D1%8B%D0%B5%20%D1%82%D0%BE%D0%B2%D0%B0%D1%80%D1%8B%22%20style%3D%22html%3D1%3BverticalAlign%3Dbottom%3BendArrow%3Dblock%3Bcurved%3D0%3Brounded%3D0%3B%22%20edge%3D%221%22%20parent%3D%221%22%3E%3CmxGeometry%20width%3D%2280%22%20relative%3D%221%22%20as%3D%22geometry%22%3E%3CmxPoint%20x%3D%22440%22%20y%3D%22410%22%20as%3D%22sourcePoint%22%2F%3E%3CmxPoint%20x%3D%22250%22%20y%3D%22410%22%20as%3D%22targetPoint%22%2F%3E%3C%2FmxGeometry%3E%3C%2FmxCell%3E%3C%2Froot%3E%3C%2FmxGraphModel%3E&lt;/span&gt;" style="html=1;verticalAlign=bottom;endArrow=block;curved=0;rounded=0;" parent="1" edge="1">
          <mxGeometry width="80" relative="1" as="geometry">
            <mxPoint x="440" y="489.5" as="sourcePoint" />
            <mxPoint x="250" y="489.5" as="targetPoint" />
          </mxGeometry>
        </mxCell>
        <mxCell id="1J4Oa96EwveFmY7NADve-28" value="Ошибка подтверждении" style="html=1;verticalAlign=bottom;endArrow=block;curved=0;rounded=0;" parent="1" edge="1">
          <mxGeometry width="80" relative="1" as="geometry">
            <mxPoint x="250" y="520" as="sourcePoint" />
            <mxPoint x="60" y="520" as="targetPoint" />
          </mxGeometry>
        </mxCell>
        <mxCell id="1J4Oa96EwveFmY7NADve-29" value="Оплатить онлайн" style="html=1;verticalAlign=bottom;endArrow=block;curved=0;rounded=0;" parent="1" edge="1">
          <mxGeometry width="80" relative="1" as="geometry">
            <mxPoint x="60" y="580" as="sourcePoint" />
            <mxPoint x="250" y="580" as="targetPoint" />
          </mxGeometry>
        </mxCell>
        <mxCell id="1J4Oa96EwveFmY7NADve-30" value="Заполнение формы" style="html=1;verticalAlign=bottom;endArrow=block;curved=0;rounded=0;" parent="1" edge="1">
          <mxGeometry width="80" relative="1" as="geometry">
            <mxPoint x="250" y="610" as="sourcePoint" />
            <mxPoint x="60" y="610" as="targetPoint" />
          </mxGeometry>
        </mxCell>
        <mxCell id="1J4Oa96EwveFmY7NADve-31" value="Сборка заказа" style="html=1;verticalAlign=bottom;endArrow=block;curved=0;rounded=0;" parent="1" edge="1">
          <mxGeometry width="80" relative="1" as="geometry">
            <mxPoint x="250" y="920" as="sourcePoint" />
            <mxPoint x="440" y="920" as="targetPoint" />
            <mxPoint as="offset" />
          </mxGeometry>
        </mxCell>
        <mxCell id="1J4Oa96EwveFmY7NADve-33" value="Проверка&lt;br&gt;валидации" style="html=1;align=left;spacingLeft=2;endArrow=block;rounded=0;edgeStyle=orthogonalEdgeStyle;curved=0;rounded=0;" parent="1" edge="1">
          <mxGeometry relative="1" as="geometry">
            <mxPoint x="250" y="660" as="sourcePoint" />
            <Array as="points">
              <mxPoint x="273" y="690" />
            </Array>
            <mxPoint x="248" y="690" as="targetPoint" />
          </mxGeometry>
        </mxCell>
        <mxCell id="1J4Oa96EwveFmY7NADve-34" value="Платежный шлюз" style="shape=umlLifeline;perimeter=lifelinePerimeter;whiteSpace=wrap;html=1;container=1;dropTarget=0;collapsible=0;recursiveResize=0;outlineConnect=0;portConstraint=eastwest;newEdgeStyle={&quot;curved&quot;:0,&quot;rounded&quot;:0};" parent="1" vertex="1">
          <mxGeometry x="610" y="700" width="100" height="300" as="geometry" />
        </mxCell>
        <mxCell id="1J4Oa96EwveFmY7NADve-35" value="Оплата" style="html=1;verticalAlign=bottom;endArrow=block;curved=0;rounded=0;" parent="1" source="1J4Oa96EwveFmY7NADve-2" edge="1">
          <mxGeometry width="80" relative="1" as="geometry">
            <mxPoint x="271" y="720" as="sourcePoint" />
            <mxPoint x="611" y="720" as="targetPoint" />
          </mxGeometry>
        </mxCell>
        <mxCell id="1J4Oa96EwveFmY7NADve-37" value="Валидация&amp;nbsp;&lt;br&gt;платежа" style="html=1;align=left;spacingLeft=2;endArrow=block;rounded=0;edgeStyle=orthogonalEdgeStyle;curved=0;rounded=0;" parent="1" target="1J4Oa96EwveFmY7NADve-34" edge="1">
          <mxGeometry relative="1" as="geometry">
            <mxPoint x="660" y="760" as="sourcePoint" />
            <Array as="points">
              <mxPoint x="661" y="760" />
              <mxPoint x="661" y="771" />
              <mxPoint x="720" y="771" />
              <mxPoint x="720" y="800" />
            </Array>
            <mxPoint x="665" y="790" as="targetPoint" />
          </mxGeometry>
        </mxCell>
        <mxCell id="57TXjgkIhUJReuKUKXKO-1" value="Подтверждение заказа" style="html=1;verticalAlign=bottom;endArrow=block;curved=0;rounded=0;" edge="1" parent="1" target="1J4Oa96EwveFmY7NADve-2">
          <mxGeometry width="80" relative="1" as="geometry">
            <mxPoint x="660" y="830" as="sourcePoint" />
            <mxPoint x="470" y="830" as="targetPoint" />
          </mxGeometry>
        </mxCell>
        <mxCell id="57TXjgkIhUJReuKUKXKO-2" value="Отправить формы" style="html=1;verticalAlign=bottom;endArrow=block;curved=0;rounded=0;" edge="1" parent="1">
          <mxGeometry width="80" relative="1" as="geometry">
            <mxPoint x="60" y="650" as="sourcePoint" />
            <mxPoint x="250" y="650" as="targetPoint" />
          </mxGeometry>
        </mxCell>
        <mxCell id="57TXjgkIhUJReuKUKXKO-5" style="edgeStyle=orthogonalEdgeStyle;rounded=0;orthogonalLoop=1;jettySize=auto;html=1;exitX=0.5;exitY=1;exitDx=0;exitDy=0;" edge="1" parent="1" source="57TXjgkIhUJReuKUKXKO-3" target="57TXjgkIhUJReuKUKXKO-4">
          <mxGeometry relative="1" as="geometry" />
        </mxCell>
        <mxCell id="57TXjgkIhUJReuKUKXKO-3" value="" style="ellipse;fillColor=strokeColor;html=1;" vertex="1" parent="1">
          <mxGeometry x="65" y="1130" width="30" height="30" as="geometry" />
        </mxCell>
        <mxCell id="57TXjgkIhUJReuKUKXKO-8" style="edgeStyle=orthogonalEdgeStyle;rounded=0;orthogonalLoop=1;jettySize=auto;html=1;exitX=0.5;exitY=1;exitDx=0;exitDy=0;entryX=0.5;entryY=0;entryDx=0;entryDy=0;" edge="1" parent="1" source="57TXjgkIhUJReuKUKXKO-4" target="57TXjgkIhUJReuKUKXKO-6">
          <mxGeometry relative="1" as="geometry" />
        </mxCell>
        <mxCell id="57TXjgkIhUJReuKUKXKO-4" value="Приход в библиотеку" style="html=1;align=center;verticalAlign=top;rounded=1;absoluteArcSize=1;arcSize=10;dashed=0;whiteSpace=wrap;" vertex="1" parent="1">
          <mxGeometry x="10" y="1200" width="140" height="40" as="geometry" />
        </mxCell>
        <mxCell id="57TXjgkIhUJReuKUKXKO-9" style="edgeStyle=orthogonalEdgeStyle;rounded=0;orthogonalLoop=1;jettySize=auto;html=1;exitX=0;exitY=0.5;exitDx=0;exitDy=0;" edge="1" parent="1">
          <mxGeometry relative="1" as="geometry">
            <mxPoint x="81" y="1270" as="targetPoint" />
            <mxPoint x="16" y="1355" as="sourcePoint" />
            <Array as="points">
              <mxPoint x="-59" y="1355" />
              <mxPoint x="-59" y="1270" />
            </Array>
          </mxGeometry>
        </mxCell>
        <mxCell id="57TXjgkIhUJReuKUKXKO-10" value="Оформите билет" style="edgeLabel;html=1;align=center;verticalAlign=middle;resizable=0;points=[];" vertex="1" connectable="0" parent="57TXjgkIhUJReuKUKXKO-9">
          <mxGeometry x="-0.22" y="1" relative="1" as="geometry">
            <mxPoint as="offset" />
          </mxGeometry>
        </mxCell>
        <mxCell id="57TXjgkIhUJReuKUKXKO-11" style="edgeStyle=orthogonalEdgeStyle;rounded=0;orthogonalLoop=1;jettySize=auto;html=1;exitX=1;exitY=0.5;exitDx=0;exitDy=0;entryX=0;entryY=0.5;entryDx=0;entryDy=0;" edge="1" parent="1" source="57TXjgkIhUJReuKUKXKO-6" target="57TXjgkIhUJReuKUKXKO-14">
          <mxGeometry relative="1" as="geometry">
            <mxPoint x="270" y="1355" as="targetPoint" />
          </mxGeometry>
        </mxCell>
        <mxCell id="57TXjgkIhUJReuKUKXKO-12" value="есть" style="edgeLabel;html=1;align=center;verticalAlign=middle;resizable=0;points=[];" vertex="1" connectable="0" parent="57TXjgkIhUJReuKUKXKO-11">
          <mxGeometry x="-0.1698" y="1" relative="1" as="geometry">
            <mxPoint as="offset" />
          </mxGeometry>
        </mxCell>
        <mxCell id="57TXjgkIhUJReuKUKXKO-6" value="Читательский билет" style="rhombus;" vertex="1" parent="1">
          <mxGeometry x="5" y="1290" width="150" height="130" as="geometry" />
        </mxCell>
        <mxCell id="57TXjgkIhUJReuKUKXKO-13" value="Приход в библиотеку" style="html=1;align=center;verticalAlign=top;rounded=1;absoluteArcSize=1;arcSize=10;dashed=0;whiteSpace=wrap;" vertex="1" parent="1">
          <mxGeometry x="10" y="1200" width="140" height="40" as="geometry" />
        </mxCell>
        <mxCell id="57TXjgkIhUJReuKUKXKO-14" value="Выбор книги" style="html=1;align=center;verticalAlign=top;rounded=1;absoluteArcSize=1;arcSize=10;dashed=0;whiteSpace=wrap;" vertex="1" parent="1">
          <mxGeometry x="220" y="1200" width="140" height="40" as="geometry" />
        </mxCell>
        <mxCell id="57TXjgkIhUJReuKUKXKO-16" style="edgeStyle=orthogonalEdgeStyle;rounded=0;orthogonalLoop=1;jettySize=auto;html=1;exitX=0;exitY=0.5;exitDx=0;exitDy=0;" edge="1" parent="1" source="57TXjgkIhUJReuKUKXKO-15">
          <mxGeometry relative="1" as="geometry">
            <mxPoint x="170" y="1354" as="targetPoint" />
            <mxPoint x="210" y="1378.9999999999998" as="sourcePoint" />
            <Array as="points">
              <mxPoint x="210" y="1390" />
              <mxPoint x="170" y="1390" />
            </Array>
          </mxGeometry>
        </mxCell>
        <mxCell id="57TXjgkIhUJReuKUKXKO-17" value="нет" style="edgeLabel;html=1;align=center;verticalAlign=middle;resizable=0;points=[];" vertex="1" connectable="0" parent="57TXjgkIhUJReuKUKXKO-16">
          <mxGeometry x="-0.1873" relative="1" as="geometry">
            <mxPoint as="offset" />
          </mxGeometry>
        </mxCell>
        <mxCell id="57TXjgkIhUJReuKUKXKO-18" style="edgeStyle=orthogonalEdgeStyle;rounded=0;orthogonalLoop=1;jettySize=auto;html=1;exitX=1;exitY=0.5;exitDx=0;exitDy=0;entryX=0;entryY=0.5;entryDx=0;entryDy=0;" edge="1" parent="1" source="57TXjgkIhUJReuKUKXKO-15" target="57TXjgkIhUJReuKUKXKO-19">
          <mxGeometry relative="1" as="geometry">
            <mxPoint x="370" y="1580" as="targetPoint" />
          </mxGeometry>
        </mxCell>
        <mxCell id="57TXjgkIhUJReuKUKXKO-20" value="да" style="edgeLabel;html=1;align=center;verticalAlign=middle;resizable=0;points=[];" vertex="1" connectable="0" parent="57TXjgkIhUJReuKUKXKO-18">
          <mxGeometry x="-0.0494" y="1" relative="1" as="geometry">
            <mxPoint as="offset" />
          </mxGeometry>
        </mxCell>
        <mxCell id="57TXjgkIhUJReuKUKXKO-15" value="Книга доступно" style="rhombus;" vertex="1" parent="1">
          <mxGeometry x="210" y="1320" width="150" height="130" as="geometry" />
        </mxCell>
        <mxCell id="57TXjgkIhUJReuKUKXKO-22" style="edgeStyle=orthogonalEdgeStyle;rounded=0;orthogonalLoop=1;jettySize=auto;html=1;exitX=0.5;exitY=1;exitDx=0;exitDy=0;entryX=1;entryY=0.5;entryDx=0;entryDy=0;" edge="1" parent="1" source="57TXjgkIhUJReuKUKXKO-19" target="57TXjgkIhUJReuKUKXKO-21">
          <mxGeometry relative="1" as="geometry" />
        </mxCell>
        <mxCell id="57TXjgkIhUJReuKUKXKO-19" value="Регистрация книги" style="html=1;align=center;verticalAlign=top;rounded=1;absoluteArcSize=1;arcSize=10;dashed=0;whiteSpace=wrap;" vertex="1" parent="1">
          <mxGeometry x="440" y="1160" width="140" height="40" as="geometry" />
        </mxCell>
        <mxCell id="57TXjgkIhUJReuKUKXKO-24" style="edgeStyle=orthogonalEdgeStyle;rounded=0;orthogonalLoop=1;jettySize=auto;html=1;exitX=0;exitY=0.5;exitDx=0;exitDy=0;entryX=1;entryY=0.5;entryDx=0;entryDy=0;" edge="1" parent="1" source="57TXjgkIhUJReuKUKXKO-21" target="57TXjgkIhUJReuKUKXKO-23">
          <mxGeometry relative="1" as="geometry" />
        </mxCell>
        <mxCell id="57TXjgkIhUJReuKUKXKO-21" value="Получение книги" style="html=1;align=center;verticalAlign=top;rounded=1;absoluteArcSize=1;arcSize=10;dashed=0;whiteSpace=wrap;" vertex="1" parent="1">
          <mxGeometry x="120" y="1470" width="140" height="40" as="geometry" />
        </mxCell>
        <mxCell id="57TXjgkIhUJReuKUKXKO-23" value="" style="ellipse;html=1;shape=endState;fillColor=strokeColor;" vertex="1" parent="1">
          <mxGeometry x="10" y="1475" width="30" height="30" as="geometry" />
        </mxCell>
        <mxCell id="57TXjgkIhUJReuKUKXKO-32" value="" style="endArrow=none;html=1;rounded=0;strokeWidth=2;" edge="1" parent="1">
          <mxGeometry width="50" height="50" relative="1" as="geometry">
            <mxPoint x="370" y="1600" as="sourcePoint" />
            <mxPoint x="370" y="1080" as="targetPoint" />
          </mxGeometry>
        </mxCell>
        <mxCell id="57TXjgkIhUJReuKUKXKO-33" value="" style="endArrow=none;html=1;rounded=0;strokeWidth=2;" edge="1" parent="1">
          <mxGeometry width="50" height="50" relative="1" as="geometry">
            <mxPoint x="610" y="1599.71" as="sourcePoint" />
            <mxPoint x="610" y="1080" as="targetPoint" />
          </mxGeometry>
        </mxCell>
        <mxCell id="57TXjgkIhUJReuKUKXKO-34" value="" style="endArrow=none;html=1;rounded=0;strokeWidth=2;" edge="1" parent="1">
          <mxGeometry width="50" height="50" relative="1" as="geometry">
            <mxPoint x="-110" y="1600" as="sourcePoint" />
            <mxPoint x="-110" y="1080" as="targetPoint" />
          </mxGeometry>
        </mxCell>
        <mxCell id="57TXjgkIhUJReuKUKXKO-35" value="" style="endArrow=none;html=1;rounded=0;strokeWidth=2;" edge="1" parent="1">
          <mxGeometry width="50" height="50" relative="1" as="geometry">
            <mxPoint x="610" y="1080" as="sourcePoint" />
            <mxPoint x="-110" y="1080" as="targetPoint" />
          </mxGeometry>
        </mxCell>
        <mxCell id="57TXjgkIhUJReuKUKXKO-36" value="" style="endArrow=none;html=1;rounded=0;strokeWidth=2;" edge="1" parent="1">
          <mxGeometry width="50" height="50" relative="1" as="geometry">
            <mxPoint x="610" y="1600" as="sourcePoint" />
            <mxPoint x="-110" y="1600" as="targetPoint" />
          </mxGeometry>
        </mxCell>
        <mxCell id="57TXjgkIhUJReuKUKXKO-37" value="Читатель" style="text;html=1;align=center;verticalAlign=middle;resizable=0;points=[];autosize=1;strokeColor=none;fillColor=none;" vertex="1" parent="1">
          <mxGeometry x="40" y="1080" width="70" height="30" as="geometry" />
        </mxCell>
        <mxCell id="57TXjgkIhUJReuKUKXKO-38" value="Система" style="text;html=1;align=center;verticalAlign=middle;resizable=0;points=[];autosize=1;strokeColor=none;fillColor=none;" vertex="1" parent="1">
          <mxGeometry x="440" y="1080" width="70" height="30" as="geometry" />
        </mxCell>
      </root>
    </mxGraphModel>
  </diagram>
</mxfile>
